#N canvas 92 44 400 252 10;
#X obj 153 107 iem_prepend;
#X msg 216 78 set;
#X obj 30 150 routeOSC /username;
#X obj 30 17 inlet;
#X obj 30 196 outlet;
#X text 220 188 milo-dynamic-route.pd;
#X text 150 151 requires mr.peach;
#X text 218 216 \$1 - username;
#X obj 153 19 r username;
#X obj 153 43 t a b;
#X text 219 202 updated 01.09.2008;
#X obj 135 196 outlet;
#X connect 0 0 2 0;
#X connect 1 0 0 1;
#X connect 2 0 4 0;
#X connect 2 1 11 0;
#X connect 3 0 2 0;
#X connect 8 0 9 0;
#X connect 9 0 0 0;
#X connect 9 1 1 0;
