#N canvas 335 107 972 344 10;
#X text 220 80 don't alter!;
#X text 180 137 global receive;
#X obj 39 35 loadbang;
#X text 554 279 milo-osc-send.pd;
#X text 553 291 12-28-07 greg surges;
#X obj 117 138 r sendOSC;
#X obj 558 250 s dumpOSC;
#X obj 117 185 nrciOut;
#X msg 52 119 disconnect;
#X text 481 80 don't alter!;
#X text 440 137 global receive;
#X obj 299 35 loadbang;
#X obj 377 138 r sendOSC;
#X obj 377 185 nrciOut;
#X msg 312 119 disconnect;
#X msg 299 81 connect 255.255.255.255 9999;
#X obj 299 249 sendOSC;
#X text 62 55 to send to SC clients;
#X text 322 61 to send to PD clients;
#X obj 40 279 tgl 15 0 empty empty empty 17 7 0 10 -262144 -1 -1 1
1;
#X msg 39 81 connect 255.255.255.255 57120;
#X obj 40 249 sendOSC;
#X obj 558 38 dumpOSC 9999;
#X text 553 303 dumpOSC added 1.3.07 supercollider capability added
7.2008;
#X connect 2 0 20 0;
#X connect 5 0 7 0;
#X connect 7 0 21 0;
#X connect 8 0 21 0;
#X connect 11 0 15 0;
#X connect 12 0 13 0;
#X connect 13 0 16 0;
#X connect 14 0 16 0;
#X connect 15 0 16 0;
#X connect 20 0 21 0;
#X connect 21 0 19 0;
#X connect 22 0 6 0;
