#N canvas 164 57 462 312 10;
#X obj 25 18 inlet;
#X obj 81 18 inlet;
#X obj 134 19 inlet;
#X obj 190 19 inlet;
#X obj 25 254 s send;
#X obj 104 254 s type;
#X obj 184 254 s name;
#X obj 190 180 net-request-format 3 \$1;
#X obj 25 75 net-request-format 0 \$1;
#X obj 81 109 net-request-format 1 \$1;
#X obj 134 146 net-request-format 2 \$1;
#X connect 0 0 8 0;
#X connect 1 0 9 0;
#X connect 2 0 10 0;
#X connect 3 0 7 0;
#X connect 7 0 4 0;
#X connect 7 1 5 0;
#X connect 7 2 6 0;
#X connect 8 0 4 0;
#X connect 8 1 5 0;
#X connect 8 2 6 0;
#X connect 9 0 4 0;
#X connect 9 1 5 0;
#X connect 9 2 6 0;
#X connect 10 0 4 0;
#X connect 10 1 5 0;
#X connect 10 2 6 0;
