#N canvas 73 22 256 294 10;
#X obj 67 28 inlet;
#X obj 124 223 s \$1-vu-meter;
#X obj 124 178 line;
#X obj 124 155 pack;
#X msg 145 130 25;
#X obj 124 106 t f b;
#X obj 67 50 OSCroute /amp-report;
#X connect 0 0 6 0;
#X connect 2 0 1 0;
#X connect 3 0 2 0;
#X connect 4 0 3 1;
#X connect 5 0 3 0;
#X connect 5 1 4 0;
#X connect 6 0 5 0;
