#N canvas 288 22 494 503 10;
#X obj 163 29 inlet;
#X text 200 28 receives [1/0];
#X obj 41 234 spigot 0;
#X obj 163 71 select 1 0;
#X obj 163 139 int;
#X obj 192 139 + 1;
#X obj 212 97 t b b;
#X obj 163 99 t b b;
#X msg 207 118 1;
#X msg 239 119 -1;
#X obj 192 183 moses 1;
#X msg 192 208 0;
#X obj 163 159 moses 0;
#X msg 163 179 0;
#X obj 142 325 iem_prepend;
#X msg 205 303 send /all;
#X obj 142 303 symbol \$1;
#X obj 41 261 t f b b;
#X obj 106 399 iem_prepend;
#X obj 142 348 t b a;
#X obj 43 424 iem_prepend;
#X text 273 448 milo-pitch-report-stream.pd;
#X obj 193 253 r username;
#X text 272 461 updated 01.09.2008;
#X msg 106 370 /pitch-report;
#X obj 41 29 r pitch-report;
#X obj 43 456 s sendOSC;
#X connect 0 0 3 0;
#X connect 2 0 17 0;
#X connect 3 0 7 0;
#X connect 3 1 6 0;
#X connect 4 0 12 0;
#X connect 5 0 4 1;
#X connect 5 0 10 0;
#X connect 6 0 4 0;
#X connect 6 1 9 0;
#X connect 7 0 4 0;
#X connect 7 1 8 0;
#X connect 8 0 5 1;
#X connect 9 0 5 1;
#X connect 10 0 11 0;
#X connect 10 1 2 1;
#X connect 11 0 2 1;
#X connect 12 0 13 0;
#X connect 12 1 5 0;
#X connect 13 0 5 0;
#X connect 14 0 19 0;
#X connect 15 0 14 1;
#X connect 16 0 14 0;
#X connect 17 0 20 0;
#X connect 17 1 16 0;
#X connect 17 2 15 0;
#X connect 18 0 20 1;
#X connect 19 0 24 0;
#X connect 19 1 18 1;
#X connect 20 0 26 0;
#X connect 22 0 16 1;
#X connect 24 0 18 0;
#X connect 25 0 2 0;
