#N canvas 150 95 791 245 10;
#X floatatom 244 132 5 0 0 0 - cooked-pitch nothing;
#X text 280 131 cooked pitch;
#X floatatom 359 132 5 0 0 0 - cooked-amp nothing;
#X text 395 131 cooked amp;
#X floatatom 463 132 5 0 0 0 - cooked-duration nothing;
#X floatatom 596 132 5 0 0 0 - cooked-onset nothing;
#X text 499 131 cooked duration;
#X text 629 131 inter-onset;
#X obj 22 125 net-request-toggle;
#X obj 22 180 send raw;
#X obj 127 179 send cooked-username;
#X obj 22 22 r dumpOSC;
#X text 589 22 net-request-out.pd;
#X text 589 35 updated 2.22.2008;
#X connect 8 0 9 0;
#X connect 8 1 10 0;
#X connect 11 0 8 0;
#X coords 0 -1 1 1 460 40 1 240 110;
