#N canvas 235 32 476 534 10;
#X obj 178 28 inlet;
#X obj 35 52 t b b;
#X obj 35 75 timer;
#X obj 35 257 spigot 0;
#X obj 178 73 select 1 0;
#X obj 178 141 int;
#X obj 207 141 + 1;
#X obj 227 100 t b b;
#X obj 178 101 t b b;
#X msg 222 120 1;
#X msg 254 121 -1;
#X obj 207 185 moses 1;
#X msg 207 210 0;
#X obj 178 161 moses 0;
#X msg 178 181 0;
#X obj 134 346 iem_prepend;
#X msg 197 324 send /all;
#X obj 134 324 symbol \$1;
#X obj 98 420 iem_prepend;
#X obj 134 369 t b a;
#X obj 35 445 iem_prepend;
#X obj 35 287 t f b b;
#X text 236 461 milo-rhythm-report.pd;
#X obj 185 282 r username;
#X text 237 477 updated 01.09.2008;
#X obj 35 473 s sendOSC;
#X msg 98 391 /onset-report;
#X obj 35 29 r rhythm-report;
#X connect 0 0 4 0;
#X connect 1 0 2 0;
#X connect 1 1 2 1;
#X connect 2 0 3 0;
#X connect 3 0 21 0;
#X connect 4 0 8 0;
#X connect 4 1 7 0;
#X connect 5 0 13 0;
#X connect 6 0 5 1;
#X connect 6 0 11 0;
#X connect 7 0 5 0;
#X connect 7 1 10 0;
#X connect 8 0 5 0;
#X connect 8 1 9 0;
#X connect 9 0 6 1;
#X connect 10 0 6 1;
#X connect 11 0 12 0;
#X connect 11 1 3 1;
#X connect 12 0 3 1;
#X connect 13 0 14 0;
#X connect 13 1 6 0;
#X connect 14 0 6 0;
#X connect 15 0 19 0;
#X connect 16 0 15 1;
#X connect 17 0 15 0;
#X connect 18 0 20 1;
#X connect 19 0 26 0;
#X connect 19 1 18 1;
#X connect 20 0 25 0;
#X connect 21 0 20 0;
#X connect 21 1 17 0;
#X connect 21 2 16 0;
#X connect 23 0 17 1;
#X connect 26 0 18 0;
#X connect 27 0 1 0;
