#N canvas 451 120 322 651 10;
#X obj -37 31 inlet;
#X text 23 32 net-command-send.pd;
#X text -32 584 inlet - stream of values (for transmission);
#X obj 61 447 iem_prepend;
#X obj 35 257 iem_prepend;
#X obj 35 232 symbol;
#X obj 68 84 r username;
#X obj 44 377 t b a;
#X obj 35 197 t b a;
#X obj -37 522 iem_prepend;
#X obj -1 462 t b a;
#X obj -37 66 list2symbol;
#X text -32 600 \$1 - name of data stream - as a string;
#X text 69 51 created 2.10.08;
#X obj -43 493 symbol;
#X obj -37 89 t b a;
#X msg 35 315 /command;
#X obj 35 343 iem_prepend;
#X obj 35 290 t b a;
#X obj -37 559 s sendOSC;
#X msg -37 112 send;
#X obj 35 172 iem_prepend;
#X obj 35 148 symbol \$1;
#X obj 35 122 t b a;
#X obj 22 413 symbol \$2;
#X obj 136 134 loadbang;
#X obj 136 156 s username-request;
#X connect 0 0 11 0;
#X connect 3 0 10 0;
#X connect 4 0 18 0;
#X connect 5 0 4 0;
#X connect 6 0 5 1;
#X connect 7 0 24 0;
#X connect 7 1 3 1;
#X connect 8 0 5 0;
#X connect 8 1 4 1;
#X connect 9 0 19 0;
#X connect 10 0 14 0;
#X connect 10 1 9 1;
#X connect 11 0 15 0;
#X connect 14 0 9 0;
#X connect 15 0 20 0;
#X connect 15 1 14 1;
#X connect 16 0 17 0;
#X connect 17 0 7 0;
#X connect 18 0 16 0;
#X connect 18 1 17 1;
#X connect 20 0 23 0;
#X connect 21 0 8 0;
#X connect 22 0 21 0;
#X connect 23 0 22 0;
#X connect 23 1 21 1;
#X connect 24 0 3 0;
#X connect 25 0 26 0;
