#N canvas 309 22 732 687 10;
#X obj 34 654 outlet;
#X obj 34 19 inlet;
#X obj 383 64 route send;
#X obj 187 654 outlet;
#X obj 34 40 OSCroute /all;
#X obj 34 92 OSCroute /adam /brent /chris /dale /david /glenn /greg
/jerod /kevin /steve /bill /dylan /joel /jon;
#X obj 383 91 OSCroute /adam /brent /chris /dale /david /glenn /greg
/jerod /kevin /steve /bill /dylan /joel /jon;
#X text 458 626 updated 1.11.2008;
#X text 459 639 with new usernames and formatting;
#X obj 34 62 net-dynamic-route;
#X obj 383 37 r sendOSC;
#X text 459 613 net-request-toggle.pd;
#X obj 79 209 net-request-compare /chris;
#X obj 217 341 net-request-compare /kevin;
#X obj 34 163 net-request-compare /adam;
#X obj 332 450 net-request-compare jon;
#X obj 56 186 net-request-compare /brent;
#X obj 102 231 net-request-compare /dale;
#X obj 125 253 net-request-compare /david;
#X obj 148 276 net-request-compare /glenn;
#X obj 171 297 net-request-compare /greg;
#X obj 194 319 net-request-compare /jerod;
#X obj 240 363 net-request-compare /steve;
#X obj 263 385 net-request-compare /bill;
#X obj 286 407 net-request-compare /dylan;
#X obj 309 429 net-request-compare /joel;
#X connect 1 0 4 0;
#X connect 2 0 6 0;
#X connect 4 0 9 0;
#X connect 5 0 14 0;
#X connect 5 1 16 0;
#X connect 5 2 12 0;
#X connect 5 3 17 0;
#X connect 5 4 18 0;
#X connect 5 5 19 0;
#X connect 5 6 20 0;
#X connect 5 7 21 0;
#X connect 5 8 13 0;
#X connect 5 9 22 0;
#X connect 5 10 23 0;
#X connect 5 11 24 0;
#X connect 5 12 25 0;
#X connect 5 13 15 0;
#X connect 6 0 14 1;
#X connect 6 1 16 1;
#X connect 6 2 12 1;
#X connect 6 3 17 1;
#X connect 6 4 18 1;
#X connect 6 5 19 1;
#X connect 6 6 20 1;
#X connect 6 7 21 1;
#X connect 6 8 13 1;
#X connect 6 9 22 1;
#X connect 6 10 23 1;
#X connect 6 11 24 1;
#X connect 6 12 25 1;
#X connect 6 13 15 1;
#X connect 9 1 5 0;
#X connect 10 0 2 0;
#X connect 12 0 0 0;
#X connect 12 1 3 0;
#X connect 13 0 0 0;
#X connect 13 1 3 0;
#X connect 14 0 0 0;
#X connect 14 1 3 0;
#X connect 15 0 0 0;
#X connect 15 1 3 0;
#X connect 16 0 0 0;
#X connect 16 1 3 0;
#X connect 17 0 0 0;
#X connect 17 1 3 0;
#X connect 18 0 0 0;
#X connect 18 1 3 0;
#X connect 19 0 0 0;
#X connect 19 1 3 0;
#X connect 20 0 0 0;
#X connect 20 1 3 0;
#X connect 21 0 0 0;
#X connect 21 1 3 0;
#X connect 22 0 0 0;
#X connect 22 1 3 0;
#X connect 23 0 0 0;
#X connect 23 1 3 0;
#X connect 24 0 0 0;
#X connect 24 1 3 0;
#X connect 25 0 0 0;
#X connect 25 1 3 0;
