#N canvas 559 171 737 456 10;
#X obj 478 18 loadbang;
#X obj 478 80 send username;
#X obj 478 99 net-status-send;
#X obj 478 121 net-osc-send;
#X obj 477 143 net-transmit-handler;
#X obj 12 344 net-request-out;
#X obj 478 58 symbol \$1;
#X obj 12 302 net-ui-chat;
#X obj 10 414 outlet;
#X obj 53 414 outlet;
#X obj 162 414 outlet;
#X obj 253 415 outlet;
#X obj 333 416 outlet;
#X obj 443 415 outlet;
#X obj 162 394 r cooked-pitch;
#X obj 253 394 r cooked-amp;
#X obj 333 394 r cooked-duration;
#X obj 10 394 r raw;
#X obj 53 394 r cooked-username;
#X text 524 185 net-main.pd;
#X obj 12 22 net-view;
#X obj 256 22 net-request-handler;
#X obj 256 3 net-keymanager;
#X obj 478 38 delay 2;
#X obj 477 163 net-status-receive;
#X obj 443 394 r cooked-onset;
#X obj 541 18 r username-request;
#X text 524 197 updated 2.24.2008;
#X connect 0 0 23 0;
#X connect 6 0 1 0;
#X connect 14 0 10 0;
#X connect 15 0 11 0;
#X connect 16 0 12 0;
#X connect 17 0 8 0;
#X connect 18 0 9 0;
#X connect 23 0 6 0;
#X connect 25 0 13 0;
#X connect 26 0 6 0;
#X coords 0 -1 1 1 466 386 1 9 1;
