#N canvas 418 195 725 561 10;
#X obj 18 25 inlet;
#X obj 345 27 inlet;
#X obj 18 524 outlet;
#X obj 53 359 s cooked-pitch;
#X obj 106 326 s cooked-amp;
#X obj 198 353 s cooked-duration;
#X obj 18 239 spigot 0;
#X obj 83 239 spigot 0;
#X obj 148 240 spigot 0;
#X obj 213 242 spigot 0;
#X obj 148 527 outlet;
#X obj 148 500 iem_prepend \$1;
#X text 461 75 added 1.11.2008;
#X obj 345 74 net-dynamic-route;
#X msg 18 407 /pitch-report \$1;
#X msg 83 428 /amp-report \$1;
#X msg 148 449 /duration-report \$1;
#X text 473 469 net-request-compare.pd;
#X text 561 166 pitch-request;
#X obj 345 110 OSCroute /pitch-request /amp-request /duration-request
/onset-request;
#X obj 18 52 OSCroute /pitch-report /amp-report /duration-report /onset-report
;
#X obj 281 329 s cooked-onset;
#X msg 213 470 /onset-report \$1;
#X connect 0 0 20 0;
#X connect 1 0 13 0;
#X connect 6 0 3 0;
#X connect 6 0 14 0;
#X connect 7 0 4 0;
#X connect 7 0 15 0;
#X connect 8 0 5 0;
#X connect 8 0 16 0;
#X connect 9 0 22 0;
#X connect 9 0 21 0;
#X connect 11 0 10 0;
#X connect 13 0 19 0;
#X connect 14 0 2 0;
#X connect 14 0 11 0;
#X connect 15 0 2 0;
#X connect 15 0 11 0;
#X connect 16 0 2 0;
#X connect 16 0 11 0;
#X connect 19 0 6 1;
#X connect 19 1 7 1;
#X connect 19 2 8 1;
#X connect 19 3 9 1;
#X connect 20 0 6 0;
#X connect 20 1 7 0;
#X connect 20 2 8 0;
#X connect 20 3 9 0;
#X connect 22 0 2 0;
#X connect 22 0 11 0;
