#N canvas 81 22 1020 632 10;
#X msg 129 67 symbol;
#X obj 92 541 unsymbol;
#X text 150 540 iemlib;
#X obj 196 17 loadbang;
#X symbolatom 433 396 75 0 0 0 - - -;
#X obj 129 94 s \$0-load;
#X obj 92 582 send \$0-chat;
#X obj 196 94 s \$0-osc;
#N canvas 792 154 292 384 chatSend 0;
#X obj -19 20 r \$0-chat;
#X obj -19 283 iem_prepend;
#X obj -19 53 t a b;
#X msg 44 77 send /all;
#X obj 8 156 iem_prepend;
#X obj 41 20 r username;
#X obj 8 123 symbol;
#X obj 44 258 iem_prepend;
#X msg 8 209 /chat;
#X obj 8 177 t b a;
#X obj 44 97 t b a;
#X text 96 325 updated 1.12.2008;
#X obj -19 327 s sendOSC;
#X connect 0 0 2 0;
#X connect 1 0 12 0;
#X connect 2 0 1 0;
#X connect 2 1 3 0;
#X connect 3 0 10 0;
#X connect 4 0 9 0;
#X connect 5 0 6 1;
#X connect 6 0 4 0;
#X connect 7 0 1 1;
#X connect 8 0 7 0;
#X connect 9 0 8 0;
#X connect 9 1 7 1;
#X connect 10 0 6 0;
#X connect 10 1 4 1;
#X restore 461 94 pd chatSend;
#X text 277 45 updated 1.12.2008;
#N canvas 61 35 520 622 printChat 0;
#X obj 25 19 inlet;
#X obj 25 128 route /chat;
#X obj 25 152 print adam;
#X obj 60 179 route /chat;
#X obj 60 203 print brent;
#X obj 96 226 route /chat;
#X obj 96 250 print chris;
#X obj 132 272 route /chat;
#X obj 132 296 print dale;
#X obj 167 320 route /chat;
#X obj 167 344 print david;
#X obj 233 418 route /chat;
#X obj 233 442 print greg;
#X obj 269 463 route /chat;
#X obj 304 510 route /chat;
#X obj 304 534 print kevin;
#X obj 340 557 route /chat;
#X obj 340 581 print steve;
#X obj 202 369 route /chat;
#X obj 269 487 print jerod;
#X obj 25 54 OSCroute /all;
#X obj 202 393 print glenn;
#X obj 25 85 OSCroute /adam /brent /chris /dale /david /glenn /greg
/jerod /kevin /steve;
#X connect 0 0 20 0;
#X connect 1 0 2 0;
#X connect 3 0 4 0;
#X connect 5 0 6 0;
#X connect 7 0 8 0;
#X connect 9 0 10 0;
#X connect 11 0 12 0;
#X connect 13 0 19 0;
#X connect 14 0 15 0;
#X connect 16 0 17 0;
#X connect 18 0 21 0;
#X connect 20 0 22 0;
#X connect 22 0 1 0;
#X connect 22 1 3 0;
#X connect 22 2 5 0;
#X connect 22 3 7 0;
#X connect 22 4 9 0;
#X connect 22 5 18 0;
#X connect 22 6 11 0;
#X connect 22 7 13 0;
#X connect 22 8 14 0;
#X connect 22 9 16 0;
#X restore 665 97 pd printChat;
#X obj 196 42 delay 5;
#X text 277 20 chat guts fixed 10/9/07 still needs working backspace
on a char-by-char basis using [list split];
#X obj 75 121 r keys-to-chat;
#X obj 665 57 r dumpOSC;
#X obj 110 257 nrciChat;
#X connect 0 0 5 0;
#X connect 1 0 6 0;
#X connect 3 0 11 0;
#X connect 11 0 0 0;
#X connect 11 0 7 0;
#X connect 13 0 15 0;
#X connect 14 0 10 0;
#X connect 15 0 1 0;
#X connect 15 1 4 0;
#X coords -1 -1 1 1 460 40 1 430 375;
