#N canvas 392 176 718 508 10;
#X obj 25 18 inlet;
#X text 62 17 index;
#X msg 178 137 send;
#X obj 178 113 t b b;
#X obj 235 137 symbol \$1;
#X obj 178 162 iem_append;
#X obj 161 21 r username;
#X obj 128 254 iem_prepend;
#X obj 178 182 t b a;
#X obj 128 276 t b a;
#X obj 92 336 iem_prepend;
#X msg 92 311 /read;
#X obj 25 78 t a b;
#X obj 56 413 iem_prepend;
#X obj 92 358 t b a;
#X obj 10 387 f;
#X obj 367 77 OSCroute /all;
#X obj 367 117 OSCroute \$1;
#X obj 367 200 outlet;
#X text 403 427 net-memory-request.pd;
#X obj 128 231 symbol;
#X obj 367 167 OSCroute /memory-value;
#X obj 56 448 s sendOSC;
#X obj 367 22 r dumpOSC;
#X connect 0 0 12 0;
#X connect 2 0 5 0;
#X connect 3 0 2 0;
#X connect 3 1 4 0;
#X connect 4 0 5 1;
#X connect 5 0 8 0;
#X connect 6 0 20 1;
#X connect 7 0 9 0;
#X connect 8 0 20 0;
#X connect 8 1 7 1;
#X connect 9 0 11 0;
#X connect 9 1 10 1;
#X connect 10 0 14 0;
#X connect 11 0 10 0;
#X connect 12 0 15 1;
#X connect 12 1 3 0;
#X connect 13 0 22 0;
#X connect 14 0 15 0;
#X connect 14 1 13 1;
#X connect 15 0 13 0;
#X connect 16 0 17 0;
#X connect 17 0 21 0;
#X connect 20 0 7 0;
#X connect 21 0 18 0;
#X connect 23 0 16 0;
