#N canvas 315 22 561 540 10;
#X obj 349 46 inlet;
#X text 87 43 because left and right channel are summed;
#X obj 39 43 *~ 0.5;
#X text 87 55 inside milo-sfx-output~ - yes/no?;
#X text 386 26 receives [1/0];
#X obj 39 70 env~ 2048;
#X obj 39 290 spigot 0;
#X obj 349 87 select 1 0;
#X obj 349 155 int;
#X obj 378 155 + 1;
#X obj 398 114 t b b;
#X obj 349 115 t b b;
#X msg 393 134 1;
#X msg 425 135 -1;
#X obj 378 199 moses 1;
#X msg 378 224 0;
#X obj 349 175 moses 0;
#X msg 349 195 0;
#X obj 139 375 iem_prepend;
#X msg 202 353 send /all;
#X obj 139 353 symbol \$1;
#X obj 103 449 iem_prepend;
#X obj 139 398 t b a;
#X obj 40 474 iem_prepend;
#X obj 40 318 t f b b;
#X text 306 491 milo-amp-report-stream.pd;
#X text 305 503 updated 1.3.07 greg surges;
#X obj 190 315 r username;
#X obj 39 23 catch~ amp-report;
#X msg 103 420 /amp-report;
#X obj 40 500 s sendOSC;
#X connect 0 0 7 0;
#X connect 2 0 5 0;
#X connect 5 0 6 0;
#X connect 6 0 24 0;
#X connect 7 0 11 0;
#X connect 7 1 10 0;
#X connect 8 0 16 0;
#X connect 9 0 8 1;
#X connect 9 0 14 0;
#X connect 10 0 8 0;
#X connect 10 1 13 0;
#X connect 11 0 8 0;
#X connect 11 1 12 0;
#X connect 12 0 9 1;
#X connect 13 0 9 1;
#X connect 14 0 15 0;
#X connect 14 1 6 1;
#X connect 15 0 6 1;
#X connect 16 0 17 0;
#X connect 16 1 9 0;
#X connect 17 0 9 0;
#X connect 18 0 22 0;
#X connect 19 0 18 1;
#X connect 20 0 18 0;
#X connect 21 0 23 1;
#X connect 22 0 29 0;
#X connect 22 1 21 1;
#X connect 23 0 30 0;
#X connect 24 0 23 0;
#X connect 24 1 20 0;
#X connect 24 2 19 0;
#X connect 27 0 20 1;
#X connect 28 0 2 0;
#X connect 29 0 21 0;
