#N canvas 175 32 532 621 10;
#X obj 157 27 table \$0-memory 128;
#X obj -17 27 r milo-dumpOSC;
#X obj 74 27 r username;
#X obj -17 152 routeOSC /username;
#X obj 74 72 t a b;
#X msg 109 97 set;
#X obj 74 129 iem_prepend;
#X obj -17 177 OSCroute /greg /chris /brent /adam /jerod /dale /david
/kevin /steve /glenn /bill /dylan /joel /jon;
#X obj -17 300 tabread \$0-memory;
#X obj -17 332 t a b b;
#X obj 2 389 symbol;
#X obj 49 333 r username;
#X obj 2 412 iem_prepend;
#X obj 2 444 t b a;
#X obj 2 501 iem_prepend;
#X msg 2 478 /memory-value;
#X obj -17 545 iem_prepend;
#X obj 136 380 tabwrite \$0-memory;
#X obj 136 300 unpack;
#X obj 136 357 f;
#X obj 136 323 t b a;
#X obj -17 245 OSCroute /read /write;
#X text -131 303 read and broadcast;
#X text 183 304 incoming write;
#X text 162 562 net-memory.pd;
#X text 162 575 handles requests;
#X msg 65 390 send /all;
#X obj -46 91 print;
#X obj -17 577 s sendOSC;
#X connect 1 0 3 0;
#X connect 2 0 4 0;
#X connect 3 0 7 0;
#X connect 4 0 6 0;
#X connect 4 1 5 0;
#X connect 5 0 6 1;
#X connect 6 0 3 0;
#X connect 7 0 21 0;
#X connect 7 1 21 0;
#X connect 7 2 21 0;
#X connect 7 3 21 0;
#X connect 7 4 21 0;
#X connect 7 5 21 0;
#X connect 7 6 21 0;
#X connect 7 7 21 0;
#X connect 7 8 21 0;
#X connect 7 9 21 0;
#X connect 7 10 21 0;
#X connect 7 11 21 0;
#X connect 7 12 21 0;
#X connect 7 13 21 0;
#X connect 8 0 9 0;
#X connect 9 0 16 0;
#X connect 9 1 10 0;
#X connect 9 2 26 0;
#X connect 10 0 12 0;
#X connect 11 0 10 1;
#X connect 12 0 13 0;
#X connect 13 0 15 0;
#X connect 13 1 14 1;
#X connect 14 0 16 1;
#X connect 15 0 14 0;
#X connect 16 0 28 0;
#X connect 18 0 20 0;
#X connect 18 1 19 1;
#X connect 19 0 17 0;
#X connect 20 0 19 0;
#X connect 20 1 17 1;
#X connect 21 0 8 0;
#X connect 21 1 18 0;
#X connect 26 0 12 1;
