#N canvas 298 215 324 509 10;
#X obj 25 18 inlet;
#X text 62 17 index;
#X msg 178 137 send;
#X obj 178 113 t b b;
#X obj 235 137 symbol \$1;
#X obj 178 162 iem_append;
#X obj 128 231 symbol;
#X obj 161 21 r username;
#X obj 128 254 iem_prepend;
#X obj 178 182 t b a;
#X obj 128 276 t b a;
#X obj 92 336 iem_prepend;
#X msg 92 311 /read;
#X obj 25 78 t a b;
#X obj 56 413 iem_prepend;
#X obj 92 358 t b a;
#X obj 10 387 f;
#X obj 56 448 outlet;
#X obj 114 19 inlet;
#X obj 25 47 spigot;
#X connect 0 0 19 0;
#X connect 2 0 5 0;
#X connect 3 0 2 0;
#X connect 3 1 4 0;
#X connect 4 0 5 1;
#X connect 5 0 9 0;
#X connect 6 0 8 0;
#X connect 7 0 6 1;
#X connect 8 0 10 0;
#X connect 9 0 6 0;
#X connect 9 1 8 1;
#X connect 10 0 12 0;
#X connect 10 1 11 1;
#X connect 11 0 15 0;
#X connect 12 0 11 0;
#X connect 13 0 16 1;
#X connect 13 1 3 0;
#X connect 14 0 17 0;
#X connect 15 0 16 0;
#X connect 15 1 14 1;
#X connect 16 0 14 0;
#X connect 18 0 19 1;
#X connect 19 0 13 0;
