#N canvas 478 101 462 312 12;
#X obj 25 8 inlet;
#X obj 25 243 outlet;
#X obj 77 244 outlet;
#X obj 129 244 outlet;
#X obj 25 81 t f b b;
#X obj 77 118 f \$1;
#X obj 129 119 f \$2;
#X connect 0 0 4 0;
#X connect 4 0 1 0;
#X connect 4 1 5 0;
#X connect 4 2 6 0;
#X connect 5 0 2 0;
#X connect 6 0 3 0;
