#N canvas 166 22 739 735 10;
#X text 413 44 created 9/18/07;
#X text 502 27 status bundle send;
#X obj 271 11 loadbang;
#X text 413 59 updated 9/20/07 w/ formatting;
#X obj 271 167 metro 100;
#X text 412 76 updated 11/6/07;
#X text 412 90 catch~ from milo-sfx-output~ added 11.08.2007;
#X text 412 103 updated 12/27/07 for version 0.2;
#X obj 271 66 t b b;
#X obj 340 443 iem_prepend;
#X obj 340 549 iem_prepend;
#X obj 21 587 iem_prepend;
#X obj 277 374 symbol \$1;
#X obj 340 125 t b b b;
#X obj 340 469 t b a;
#X msg 340 511 /amp-report;
#X obj 403 402 iem_prepend;
#X msg 403 377 /all;
#X msg 466 376 send;
#X text 414 510 should probably be changed...;
#X obj 301 291 r username;
#X obj 301 316 t b a;
#X obj 21 210 net-amp-report;
#X obj 271 127 delay 5;
#X obj 21 8 catch~ status-left;
#X obj 61 41 catch~ status-right;
#X obj 21 661 s sendOSC;
#X connect 2 0 8 0;
#X connect 4 0 22 2;
#X connect 8 0 23 0;
#X connect 8 1 13 0;
#X connect 9 0 14 0;
#X connect 10 0 11 1;
#X connect 11 0 26 0;
#X connect 12 0 9 0;
#X connect 13 1 17 0;
#X connect 13 2 18 0;
#X connect 14 0 15 0;
#X connect 14 1 10 1;
#X connect 15 0 10 0;
#X connect 16 0 9 1;
#X connect 17 0 16 0;
#X connect 18 0 16 1;
#X connect 20 0 21 0;
#X connect 21 0 12 0;
#X connect 21 1 12 1;
#X connect 22 0 11 0;
#X connect 23 0 4 0;
#X connect 24 0 22 0;
#X connect 25 0 22 1;
