#N canvas 315 22 415 563 10;
#X obj 199 29 inlet;
#X text 236 28 receives [1/0];
#X obj 39 282 spigot 0;
#X obj 199 69 select 1 0;
#X obj 199 137 int;
#X obj 228 137 + 1;
#X obj 248 96 t b b;
#X obj 199 97 t b b;
#X msg 243 116 1;
#X msg 275 117 -1;
#X obj 228 181 moses 1;
#X msg 228 206 0;
#X obj 199 157 moses 0;
#X msg 199 177 0;
#X obj 138 375 iem_prepend;
#X msg 201 353 send /all;
#X obj 138 353 symbol \$1;
#X obj 102 449 iem_prepend;
#X obj 138 398 t b a;
#X obj 39 474 iem_prepend;
#X obj 39 307 t f b b;
#X text 173 497 milo-duration-report.pd;
#X text 171 511 updated 1.3.07 greg surges;
#X obj 189 322 r username;
#X obj 39 30 r duration-report;
#X msg 102 420 /duration-report;
#X obj 39 510 s sendOSC;
#X connect 0 0 3 0;
#X connect 2 0 20 0;
#X connect 3 0 7 0;
#X connect 3 1 6 0;
#X connect 4 0 12 0;
#X connect 5 0 4 1;
#X connect 5 0 10 0;
#X connect 6 0 4 0;
#X connect 6 1 9 0;
#X connect 7 0 4 0;
#X connect 7 1 8 0;
#X connect 8 0 5 1;
#X connect 9 0 5 1;
#X connect 10 0 11 0;
#X connect 10 1 2 1;
#X connect 11 0 2 1;
#X connect 12 0 13 0;
#X connect 12 1 5 0;
#X connect 13 0 5 0;
#X connect 14 0 18 0;
#X connect 15 0 14 1;
#X connect 16 0 14 0;
#X connect 17 0 19 1;
#X connect 18 0 25 0;
#X connect 18 1 17 1;
#X connect 19 0 26 0;
#X connect 20 0 19 0;
#X connect 20 1 16 0;
#X connect 20 2 15 0;
#X connect 23 0 16 1;
#X connect 24 0 2 0;
#X connect 25 0 17 0;
