#N canvas 296 156 470 488 10;
#X text 129 34 updated 1.3.07;
#X text 129 21 created 9.25.07 greg surges;
#X text 130 5 milo-status-receive.pd;
#X obj 12 92 OSCroute /greg /chris /brent /adam /jerod /dale /david
/kevin /steve /glenn /bill /dylan /joel /jon;
#X obj 34 161 net-status chris;
#X obj 12 58 OSCroute /all;
#X obj 12 27 r dumpOSC;
#X obj 12 136 net-status greg;
#X obj 57 188 net-status brent;
#X obj 80 215 net-status adam;
#X obj 103 245 net-status jerod;
#X obj 126 269 net-status dale;
#X obj 149 295 net-status david;
#X obj 172 321 net-status kevin;
#X obj 218 367 net-status glenn;
#X obj 195 343 net-status steve;
#X obj 241 393 net-status bill;
#X obj 264 419 net-status dylan;
#X obj 287 441 net-status joel;
#X obj 310 466 net-status jon;
#X connect 3 0 7 0;
#X connect 3 1 4 0;
#X connect 3 2 8 0;
#X connect 3 3 9 0;
#X connect 3 4 10 0;
#X connect 3 5 11 0;
#X connect 3 6 12 0;
#X connect 3 7 13 0;
#X connect 3 8 15 0;
#X connect 3 9 14 0;
#X connect 3 10 16 0;
#X connect 3 11 17 0;
#X connect 3 12 18 0;
#X connect 3 13 19 0;
#X connect 5 0 3 0;
#X connect 6 0 5 0;
