#N canvas 815 144 531 329 10;
#X obj 30 78 OSCroute /greg /chris /brent /adam /jerod /dale /david
/kevin /steve /glenn /bill /dylan /joel /jon;
#X obj 395 24 loadbang;
#X obj 395 78 symbol \$1;
#X obj 395 103 t a b;
#X msg 430 128 set;
#X obj 395 160 iem_prepend;
#X text 278 186 net-command-receive.pd;
#X text 278 200 \$1 - data name - as a string;
#X text 278 214 created 2.10.08;
#X obj 395 47 delay 5;
#X obj 30 295 outlet;
#X obj 30 265 atoi;
#X obj 30 197 OSCroute /command;
#X obj 140 19 r dumpOSC;
#X obj 30 50 net-dynamic-route;
#X obj 30 232 route \$1;
#X obj 140 50 OSCroute /all;
#X obj 185 268 loadbang;
#X obj 185 290 s username-request;
#X connect 0 0 12 0;
#X connect 0 1 12 0;
#X connect 0 2 12 0;
#X connect 0 3 12 0;
#X connect 0 4 12 0;
#X connect 0 5 12 0;
#X connect 0 6 12 0;
#X connect 0 7 12 0;
#X connect 0 8 12 0;
#X connect 0 9 12 0;
#X connect 0 10 12 0;
#X connect 0 11 12 0;
#X connect 0 12 12 0;
#X connect 0 13 12 0;
#X connect 1 0 9 0;
#X connect 2 0 3 0;
#X connect 3 0 5 0;
#X connect 3 1 4 0;
#X connect 4 0 5 1;
#X connect 5 0 12 0;
#X connect 9 0 2 0;
#X connect 11 0 10 0;
#X connect 12 0 15 0;
#X connect 13 0 14 0;
#X connect 13 0 16 0;
#X connect 14 0 0 0;
#X connect 15 0 11 0;
#X connect 16 0 0 0;
#X connect 17 0 18 0;
