#N canvas 612 67 608 553 10;
#X obj 5 24 key;
#X obj 5 43 select 96;
#X obj 303 298 spigot;
#X obj 5 65 int;
#X obj 31 65 + 1;
#X obj 31 85 mod 4;
#X msg 31 152 1;
#X msg 58 152 0;
#X obj 352 298 spigot;
#X obj 402 298 spigot;
#X msg 87 152 1;
#X msg 114 152 0;
#X msg 141 152 1;
#X msg 168 152 0;
#X msg 227 151 0;
#X obj 31 131 t b b b;
#X obj 86 131 t b b b;
#X obj 141 131 t b b b;
#X obj 197 131 t b b;
#X symbolatom 197 351 10 0 0 0 - - -;
#X text 20 416 route keystrokes to different functions;
#X text 21 429 depending on selections of the "`" key;
#X msg 31 237 symbol modules;
#X msg 86 262 symbol fretboard;
#X msg 141 283 symbol chat;
#X msg 197 308 symbol off;
#X text 20 442 no inlets \, outputs \, or user-specified values;
#X obj 31 104 sel 1 2 3;
#X obj 226 283 loadbang;
#X obj 303 24 loadbang;
#X msg 303 76 1;
#X text 21 469 updated to use milo-key-cols 11.07.2007;
#X obj 352 115 key;
#X text 376 115 fretboard code wants ASCII values;
#X obj 303 94 net-keycols;
#X text 21 404 net-keymanager.pd;
#X obj 303 50 delay 5;
#X obj 402 337 s keys-to-chat;
#X obj 352 356 s keys-to-fretboard;
#X obj 303 375 s keys-to-modules;
#X text 22 481 made part of net-main.pd 01.21.2008 changed to use nrciChat
08.10.2008;
#X obj 451 145 keyname;
#X obj 402 145 key;
#X obj 402 208 symbol;
#X msg 402 164 bang;
#X obj 402 183 delay 1;
#X text 453 207 added 8.18.2008;
#X connect 0 0 1 0;
#X connect 1 0 3 0;
#X connect 2 0 39 0;
#X connect 3 0 4 0;
#X connect 4 0 3 1;
#X connect 4 0 5 0;
#X connect 5 0 27 0;
#X connect 6 0 2 1;
#X connect 7 0 8 1;
#X connect 7 0 9 1;
#X connect 8 0 38 0;
#X connect 9 0 37 0;
#X connect 10 0 8 1;
#X connect 11 0 2 1;
#X connect 11 0 9 1;
#X connect 12 0 9 1;
#X connect 13 0 2 1;
#X connect 13 0 8 1;
#X connect 14 0 2 1;
#X connect 14 0 8 1;
#X connect 14 0 9 1;
#X connect 15 0 22 0;
#X connect 15 1 6 0;
#X connect 15 2 7 0;
#X connect 16 0 23 0;
#X connect 16 1 10 0;
#X connect 16 2 11 0;
#X connect 17 0 24 0;
#X connect 17 1 12 0;
#X connect 17 2 13 0;
#X connect 18 0 25 0;
#X connect 18 1 14 0;
#X connect 22 0 19 0;
#X connect 23 0 19 0;
#X connect 24 0 19 0;
#X connect 25 0 19 0;
#X connect 27 0 15 0;
#X connect 27 1 16 0;
#X connect 27 2 17 0;
#X connect 27 3 18 0;
#X connect 28 0 25 0;
#X connect 29 0 36 0;
#X connect 30 0 34 0;
#X connect 32 0 8 0;
#X connect 34 0 2 0;
#X connect 36 0 30 0;
#X connect 41 1 43 1;
#X connect 42 0 44 0;
#X connect 43 0 9 0;
#X connect 44 0 45 0;
#X connect 45 0 43 0;
#X coords 0 -1 1 1 190 17 1 70 350;
