#N canvas 429 110 653 699 10;
#X obj -6 15 inlet;
#X obj -6 95 mtof;
#X obj -6 544 outlet~;
#X text 36 15 stream of incoming data values (0-100);
#X text 52 544 audio output;
#X text -8 617 one inlet: stream of values interpreted as MIDI pitches
;
#X text -8 631 one outlet~: synthesis audio;
#X obj -6 37 clip 0 100;
#X obj 10 495 line~;
#X obj -6 517 *~;
#X obj 334 251 tgl 15 0 empty empty empty 0 -6 0 8 -262144 -1 -1 0
1;
#X obj 334 296 t b b;
#X obj 334 271 sel 1;
#X obj 378 296 t b b;
#X obj 364 374 switch~;
#X obj 408 317 delay 6;
#X msg 408 341 0;
#X msg 364 342 1;
#X msg 45 473 0 5;
#X obj 465 317 loadbang;
#X obj -6 56 t f f;
#X msg 10 473 1 5;
#X obj 334 230 select \$1;
#X text -8 603 one user-specified value: on/off key assignment (\$1)
;
#X text -8 588 Karplus-Strong plucked string synthesis;
#X obj -6 158 /;
#X obj -6 293 pack;
#X obj -6 313 line~;
#X obj -6 336 vd~ \$0-delay 1000;
#X obj 200 469 delwrite~ \$0-delay 1000;
#X obj -6 178 t f b f;
#X obj 48 253 delay;
#X msg 48 272 0 1;
#X obj 246 308 noise~;
#X obj 200 308 line~;
#X obj 200 336 *~;
#X msg 16 273 1;
#X msg 200 280 0.3 1;
#X obj -6 120 t b f;
#X text 28 97 calculate pluck frequency;
#X obj 105 397 *~;
#X obj 48 232 t b f b b;
#X obj 121 376 + 0.82;
#X obj 121 335 random 15;
#X obj 121 356 / 100;
#X msg -6 139 2756.25;
#X text -7 574 synth-pluck~.pd;
#X obj 334 209 internals-keyswitch;
#X obj 24 76 s pitch-report;
#X connect 0 0 7 0;
#X connect 1 0 38 0;
#X connect 7 0 20 0;
#X connect 8 0 9 1;
#X connect 9 0 2 0;
#X connect 10 0 12 0;
#X connect 11 0 21 0;
#X connect 11 1 17 0;
#X connect 12 0 11 0;
#X connect 12 1 13 0;
#X connect 13 0 18 0;
#X connect 13 1 15 0;
#X connect 15 0 16 0;
#X connect 16 0 14 0;
#X connect 17 0 14 0;
#X connect 18 0 8 0;
#X connect 19 0 16 0;
#X connect 20 0 1 0;
#X connect 20 1 48 0;
#X connect 21 0 8 0;
#X connect 22 0 10 0;
#X connect 25 0 30 0;
#X connect 26 0 27 0;
#X connect 27 0 28 0;
#X connect 28 0 9 0;
#X connect 28 0 40 0;
#X connect 30 0 26 0;
#X connect 30 1 36 0;
#X connect 30 2 41 0;
#X connect 31 0 32 0;
#X connect 32 0 34 0;
#X connect 33 0 35 1;
#X connect 34 0 35 0;
#X connect 35 0 29 0;
#X connect 36 0 26 1;
#X connect 37 0 34 0;
#X connect 38 0 45 0;
#X connect 38 1 25 1;
#X connect 40 0 29 0;
#X connect 41 0 31 0;
#X connect 41 1 31 1;
#X connect 41 2 43 0;
#X connect 41 3 37 0;
#X connect 42 0 40 1;
#X connect 43 0 44 0;
#X connect 44 0 42 0;
#X connect 45 0 25 0;
#X connect 47 0 22 0;
#X coords 0 -1 1 1 110 17 1 240 250;
