#N canvas 301 272 679 526 10;
#X obj 201 45 MouseState;
#X msg 201 25 poll;
#X floatatom 226 301 5 0 0 0 - - -;
#X floatatom 192 301 5 0 0 0 - - -;
#X obj 235 362 outlet;
#X obj 191 362 outlet;
#X obj 201 5 loadbang;
#X obj 265 187 spigot;
#X obj 215 187 spigot;
#X obj 333 219 select \$1;
#X obj 175 301 tgl 15 0 empty empty empty 0 -6 0 10 -262144 -1 -1 0
1;
#X obj 215 220 change;
#X obj 265 220 change;
#X text 305 49 assumes 1440 x 900 screen;
#X text 301 68 is there a way to normalize for other sizes?;
#X text 301 82 (or should we just provide an object for each?);
#X obj 407 178 select 1;
#X obj 407 361 outlet;
#X text 452 360 bang on mouse click;
#X text 280 362 y-axis;
#X text 146 362 x-axis;
#X text 19 423 mouse interface object;
#X text 17 466 no inlets;
#X text 16 480 three outlets: x-axis (0-100) \, y-axis (100-0) \, bang
on click;
#X text 17 437 three user-specified value: on/off key assignment ($1)
;
#X text 31 452 screen width ($2) \, screen height ($3);
#X obj 215 121 / \$2;
#X obj 215 146 * 100;
#X obj 265 120 - \$3;
#X obj 265 146 / \$3;
#X obj 265 167 * -100;
#X obj 333 105 internals-keyswitch;
#X text 16 493 updated 01.21.2008 with \$2 \, \$3;
#X text 18 409 ui-mouse.pd;
#X connect 0 0 16 0;
#X connect 0 1 26 0;
#X connect 0 2 28 0;
#X connect 1 0 0 0;
#X connect 2 0 4 0;
#X connect 3 0 5 0;
#X connect 6 0 1 0;
#X connect 7 0 12 0;
#X connect 8 0 11 0;
#X connect 9 0 10 0;
#X connect 10 0 8 1;
#X connect 10 0 7 1;
#X connect 11 0 3 0;
#X connect 12 0 2 0;
#X connect 16 0 17 0;
#X connect 26 0 27 0;
#X connect 27 0 8 0;
#X connect 28 0 29 0;
#X connect 29 0 30 0;
#X connect 30 0 7 0;
#X connect 31 0 9 0;
#X coords 0 -1 1 1 210 17 1 50 300;
